<svg width="31" height="30" viewBox="0 0 31 30" fill="none" xmlns="http://www.w3.org/2000/svg">
<path d="M26.48 0L5.1882 0C2.75602 0 0.776917 1.97159 0.776917 4.39453L0.776917 25.6055C0.776917 28.0284 2.75602 30 5.1882 30L14.0696 30L14.0696 19.3945L10.5406 19.3945L10.5406 14.1211H14.0696V10.5469C14.0696 7.63893 16.4441 5.27344 19.3631 5.27344L24.7155 5.27344V10.5469H19.3631L19.3631 14.1211H24.7155L23.8333 19.3945H19.3631V30H26.48C28.9122 30 30.8913 28.0284 30.8913 25.6055L30.8913 4.39453C30.8913 1.97159 28.9122 0 26.48 0Z" fill="black"/>
</svg>
